<?xml version="1.0" encoding="iso-8859-1"?>
<!-- Uploaded to: SVG Repo, www.svgrepo.com, Generator: SVG Repo Mixer Tools -->
<svg height="800px" width="800px" version="1.1" id="Layer_1" xmlns="http://www.w3.org/2000/svg" xmlns:xlink="http://www.w3.org/1999/xlink" 
	 viewBox="0 0 512.001 512.001" xml:space="preserve">
<path style="fill:#E6563A;" d="M289.391,200.349h-66.782c-9.223,0-16.696-7.473-16.696-16.696V83.479
	c0-9.223,7.473-16.696,16.696-16.696h66.782c9.223,0,16.584,7.473,16.584,16.696v100.174
	C305.976,192.876,298.614,200.349,289.391,200.349z"/>
<g>
	<path style="fill:#D9472B;" d="M289.391,66.784H256v133.565h33.391c9.223,0,16.584-7.473,16.584-16.696V83.479
		C305.976,74.256,298.614,66.784,289.391,66.784z"/>
	<path style="fill:#D9472B;" d="M489.739,267.131H22.262c-9.22,0-16.696-7.475-16.696-16.696v-66.782
		c0-9.22,7.475-16.696,16.696-16.696h467.477c9.22,0,16.584,7.475,16.584,16.696v66.782
		C506.323,259.656,498.959,267.131,489.739,267.131z"/>
</g>
<path style="fill:#BF3F25;" d="M489.739,166.958H256v100.174h233.739c9.22,0,16.584-7.475,16.584-16.696v-66.782
	C506.323,174.432,498.958,166.958,489.739,166.958z"/>
<path style="fill:#D9472B;" d="M439.541,411.827V83.479c0-9.223-7.362-16.696-16.584-16.696h-66.782
	c-9.223,0-16.696,7.473-16.696,16.696v328.347H439.541z"/>
<path style="fill:#E6563A;" d="M172.411,411.827V83.479c0-9.223-7.362-16.696-16.584-16.696H89.044
	c-9.223,0-16.696,7.473-16.696,16.696v328.347H172.411z"/>
<path style="fill:#665247;" d="M439.652,512H339.478c-5.043,0-9.815-2.277-12.984-6.201c-3.169-3.919-4.397-9.066-3.342-13.994
	l16.326-91.108h100.174l16.326,91.108c1.054,4.93-0.174,10.076-3.342,13.994C449.467,509.723,444.695,512,439.652,512z"/>
<path style="fill:#736056;" d="M172.522,512H72.348c-5.043,0-9.815-2.277-12.984-6.201c-3.169-3.919-4.397-9.066-3.342-13.994
	l16.326-91.108h100.174l16.326,91.108c1.054,4.93-0.174,10.076-3.342,13.994C182.337,509.723,177.565,512,172.522,512z"/>
<path style="fill:#665247;" d="M473.043,512H306.087c-9.223,0-16.696-7.473-16.696-16.696c0-9.223,7.473-16.696,16.696-16.696
	h166.956c9.217,0,16.696,7.473,16.696,16.696C489.739,504.527,482.26,512,473.043,512z"/>
<g>
	<path style="fill:#736056;" d="M205.913,512H38.957c-9.223,0-16.696-7.473-16.696-16.696c0-9.223,7.473-16.696,16.696-16.696
		h166.956c9.223,0,16.696,7.473,16.696,16.696C222.609,504.527,215.136,512,205.913,512z"/>
	<path style="fill:#736056;" d="M426.467,100.175H85.532c-38.37,0-71.674-26-80.984-63.234L0.501,20.745
		c-1.25-4.989-0.13-10.271,3.037-14.326C6.701,2.37,11.554,0,16.695,0h478.608c5.141,0,10,2.37,13.163,6.423
		s4.283,9.337,3.033,14.326l-4.055,16.196C498.151,74.169,464.847,100.175,426.467,100.175z"/>
</g>
<path style="fill:#665247;" d="M495.304,0.001H256v100.174h170.467c38.38,0,71.684-26.005,80.978-63.229l4.055-16.196
	c1.25-4.989,0.13-10.272-3.033-14.326S500.445,0.001,495.304,0.001z"/>
</svg>